# xmcd
#
# Track frame offsets:
#	150
#	27002
#	45475
#	63825
#	83885
#	107662
#	129429
#	150650
#	168167
#	190200
#
# Disc length: 2823 seconds
#
# Revision: 0
# Processed by: cddbd v1.5.2PL0 Copyright (c) Steve Scherf et al.
# Submitted via: EasyCDDAExtractor 16.0.9.1
#
DISCID=700b050a
DTITLE=Tô Chấn Phong - KH38: Chìm Vào Lãng Quên
DYEAR=1997
DGENRE=Pop
TTITLE0=Tô Chấn Phong - Chìm Vào Lãng Quên ©
TTITLE1=Tô Chấn Phong and Trịnh Nam Sơn - Nhớ Phút Ấy
TTITLE2=Tô Chấn Phong - Yêu Một Người
TTITLE3=Ngọc Hương - Trả Lại Em Mái Tóc Còn Xanh
TTITLE4=Tô Chấn Phong - Chiều Vàng Nhung Nhớ
TTITLE5=Tô Chấn Phong - Niềm Nhớ
TTITLE6=Tô Chấn Phong - Hoa Nào Anh Quên
TTITLE7=Tô Chấn Phong - Đời Còn Buồn Xót Xa
TTITLE8=Thanh Thuỷ - Cơn Mưa Trong Đời
TTITLE9=Tô Chấn Phong - Bài Không Tên Số 7
EXTD=
EXTT0=
EXTT1=
EXTT2=
EXTT3=
EXTT4=
EXTT5=
EXTT6=
EXTT7=
EXTT8=
EXTT9=
PLAYORDER=
